P3
40 30
255
255 255 255 
255 255 255 
255 255 255 
255 255 255 
255 255 255 
255 255 255 
255 255 255 
255 255 255 
255 255 255 
255 255 255 
255 255 255 
255 255 255 
255 255 255 
255 255 255 
255 255 255 
255 255 255 
255 255 255 
255 255 255 
255 255 255 
255 255 255 
255 255 255 
255 255 255 
255 255 255 
255 255 255 
255 255 255 
255 255 255 
255 255 255 
255 255 255 
255 255 255 
255 255 255 
255 255 255 
255 255 255 
255 255 255 
255 255 255 
255 255 255 
255 255 255 
255 255 255 
255 255 255 
255 255 255 
255 255 255 
255 255 255 
255 255 255 
255 255 255 
255 255 255 
255 255 255 
255 255 255 
255 255 255 
255 255 255 
255 255 255 
255 255 255 
255 255 255 
255 255 255 
255 255 255 
255 255 255 
255 255 255 
255 255 255 
255 255 255 
255 255 255 
255 255 255 
255 255 255 
255 255 255 
255 255 255 
255 255 255 
255 255 255 
255 255 255 
255 255 255 
255 255 255 
255 255 255 
255 255 255 
255 255 255 
255 255 255 
255 255 255 
255 255 255 
255 255 255 
255 255 255 
255 255 255 
255 255 255 
255 255 255 
255 255 255 
255 255 255 
255 255 255 
255 255 255 
255 255 255 
255 255 255 
255 255 255 
255 255 255 
255 255 255 
255 255 255 
255 255 255 
255 255 255 
255 255 255 
255 255 255 
255 255 255 
255 255 255 
255 255 255 
255 255 255 
255 255 255 
255 255 255 
255 255 255 
255 255 255 
255 255 255 
255 255 255 
255 255 255 
255 255 255 
255 255 255 
255 255 255 
255 255 255 
255 255 255 
255 255 255 
255 255 255 
255 255 255 
255 255 255 
255 255 255 
255 255 255 
255 255 255 
255 255 255 
255 255 255 
255 255 255 
255 255 255 
255 255 255 
255 255 255 
255 255 255 
255 255 255 
255 255 255 
255 255 255 
255 255 255 
255 255 255 
255 255 255 
255 255 255 
255 255 255 
255 255 255 
255 255 255 
255 255 255 
255 255 255 
255 255 255 
255 255 255 
255 255 255 
255 255 255 
255 255 255 
255 255 255 
255 255 255 
255 255 255 
255 255 255 
255 255 255 
255 255 255 
255 255 255 
255 255 255 
255 255 255 
255 255 255 
255 255 255 
255 255 255 
255 255 255 
255 255 255 
255 255 255 
255 255 255 
255 255 255 
255 255 255 
255 255 255 
255 255 255 
255 255 255 
255 255 255 
255 255 255 
255 255 255 
255 255 255 
255 255 255 
255 255 255 
255 255 255 
255 255 255 
255 255 255 
255 255 255 
255 255 255 
255 255 255 
255 255 255 
255 255 255 
255 255 255 
255 255 255 
255 255 255 
255 255 255 
255 255 255 
255 255 255 
255 255 255 
255 255 255 
255 255 255 
255 255 255 
255 255 255 
255 255 255 
255 255 255 
255 255 255 
255 255 255 
255 255 255 
255 255 255 
255 255 255 
255 255 255 
255 255 255 
255 255 255 
255 255 255 
255 255 255 
255 255 255 
255 255 255 
255 255 255 
255 255 255 
255 255 255 
255 255 255 
255 255 255 
255 255 255 
255 255 255 
255 255 255 
255 255 255 
255 255 255 
255 255 255 
255 255 255 
255 255 255 
255 255 255 
255 255 255 
255 255 255 
255 255 255 
255 255 255 
255 255 255 
255 255 255 
255 255 255 
255 255 255 
255 255 255 
255 255 255 
255 255 255 
255 255 255 
255 255 255 
255 255 255 
255 255 255 
255 255 255 
255 255 255 
255 255 255 
255 255 255 
255 255 255 
255 255 255 
255 255 255 
255 255 255 
255 255 255 
255 255 255 
255 255 255 
255 255 255 
255 255 255 
255 255 255 
255 255 255 
255 255 255 
255 255 255 
255 255 255 
255 255 255 
255 255 255 
255 255 255 
255 255 255 
255 255 255 
255 255 255 
255 255 255 
255 255 255 
255 255 255 
255 255 255 
255 255 255 
255 255 255 
255 255 255 
255 255 255 
255 255 255 
255 255 255 
255 255 255 
255 255 255 
255 255 255 
255 255 255 
255 255 255 
255 255 255 
255 255 255 
255 255 255 
255 255 255 
255 255 255 
255 255 255 
255 255 255 
255 255 255 
255 255 255 
255 255 255 
255 255 255 
255 255 255 
255 255 255 
255 255 255 
255 255 255 
255 255 255 
255 255 255 
255 255 255 
255 255 255 
255 255 255 
255 255 255 
255 255 255 
255 255 255 
255 255 255 
255 255 255 
255 255 255 
255 255 255 
255 255 255 
255 255 255 
255 255 255 
255 255 255 
255 255 255 
255 255 255 
255 255 255 
255 255 255 
255 255 255 
255 255 255 
255 255 255 
204 204 204 
204 204 204 
255 255 255 
255 255 255 
255 255 255 
255 255 255 
255 255 255 
255 255 255 
255 255 255 
255 255 255 
255 255 255 
255 255 255 
255 255 255 
255 255 255 
255 255 255 
255 255 255 
255 255 255 
255 255 255 
255 255 255 
255 255 255 
255 255 255 
255 255 255 
255 255 255 
255 255 255 
255 255 255 
255 255 255 
255 255 255 
255 255 255 
255 255 255 
255 255 255 
255 255 255 
255 255 255 
255 255 255 
255 255 255 
255 255 255 
255 255 255 
255 255 255 
255 255 255 
204 204 204 
204 204 204 
204 204 204 
204 204 204 
204 204 204 
204 204 204 
255 255 255 
255 255 255 
255 255 255 
255 255 255 
255 255 255 
255 255 255 
255 255 255 
255 255 255 
255 255 255 
255 255 255 
255 255 255 
255 255 255 
255 255 255 
255 255 255 
255 255 255 
255 255 255 
255 255 255 
255 255 255 
255 255 255 
255 255 255 
255 255 255 
255 255 255 
255 255 255 
255 255 255 
255 255 255 
255 255 255 
255 255 255 
255 255 255 
255 255 255 
255 255 255 
255 255 255 
255 255 255 
255 255 255 
255 255 255 
204 204 204 
204 204 204 
204 204 204 
204 204 204 
226 226 226 
204 204 204 
204 204 204 
255 255 255 
255 255 255 
255 255 255 
255 255 255 
255 255 255 
255 255 255 
255 255 255 
255 255 255 
255 255 255 
255 255 255 
255 255 255 
255 255 255 
255 255 255 
255 255 255 
255 255 255 
255 255 255 
255 255 255 
255 255 255 
255 255 255 
255 255 255 
255 255 255 
255 255 255 
255 255 255 
255 255 255 
255 255 255 
255 255 255 
255 255 255 
255 255 255 
255 255 255 
255 255 255 
255 255 255 
255 255 255 
204 204 204 
204 204 204 
204 204 204 
204 204 204 
204 204 204 
204 204 204 
204 204 204 
204 204 204 
255 255 255 
255 255 255 
255 255 255 
255 255 255 
255 255 255 
255 255 255 
255 255 255 
255 255 255 
255 255 255 
255 255 255 
255 255 255 
255 255 255 
255 255 255 
255 255 255 
255 255 255 
255 255 255 
255 255 255 
255 255 255 
255 255 255 
255 255 255 
255 255 255 
255 255 255 
255 255 255 
255 255 255 
255 255 255 
255 255 255 
255 255 255 
255 255 255 
255 255 255 
255 255 255 
255 255 255 
255 255 255 
204 204 204 
204 204 204 
163 163 163 
204 204 204 
204 204 204 
204 204 204 
204 204 204 
204 204 204 
255 255 255 
255 255 255 
255 255 255 
255 255 255 
255 255 255 
255 255 255 
255 255 255 
255 255 255 
255 255 255 
255 255 255 
255 255 255 
255 255 255 
255 255 255 
255 255 255 
255 255 255 
255 255 255 
255 255 255 
255 255 255 
255 255 255 
255 255 255 
255 255 255 
255 255 255 
255 255 255 
255 255 255 
255 255 255 
255 255 255 
255 255 255 
255 255 255 
255 255 255 
255 255 255 
255 255 255 
255 255 255 
255 255 255 
255 0 0 
204 204 204 
204 204 204 
204 204 204 
204 204 204 
204 204 204 
255 255 255 
255 255 255 
255 255 255 
255 255 255 
255 255 255 
255 255 255 
255 255 255 
255 255 255 
255 255 255 
255 255 255 
255 255 255 
255 255 255 
255 255 255 
255 255 255 
255 255 255 
255 255 255 
255 255 255 
255 255 255 
255 255 255 
255 255 255 
255 255 255 
255 255 255 
255 255 255 
255 255 255 
255 255 255 
255 255 255 
255 255 255 
255 255 255 
0 0 255 
3 3 255 
255 255 255 
255 0 0 
255 0 0 
255 255 255 
255 255 255 
145 0 0 
204 204 204 
204 204 204 
204 204 204 
255 255 255 
255 255 255 
255 255 255 
255 255 255 
255 255 255 
255 255 255 
255 255 255 
255 255 255 
255 255 255 
255 255 255 
255 255 255 
255 255 255 
255 255 255 
255 255 255 
255 255 255 
255 255 255 
255 255 255 
255 255 255 
255 255 255 
255 255 255 
255 255 255 
255 255 255 
255 255 255 
255 255 255 
255 255 255 
255 255 255 
255 255 255 
255 255 255 
0 0 254 
96 96 255 
204 204 204 
204 204 204 
255 4 4 
255 0 0 
255 0 0 
255 255 255 
255 255 255 
255 255 255 
255 255 255 
255 255 255 
255 255 255 
255 255 255 
255 255 255 
255 255 255 
255 255 255 
255 255 255 
255 255 255 
255 255 255 
255 255 255 
255 255 255 
255 255 255 
255 255 255 
255 255 255 
255 255 255 
255 255 255 
255 255 255 
255 255 255 
255 255 255 
255 255 255 
255 255 255 
255 255 255 
255 255 255 
255 255 255 
255 255 255 
255 255 255 
255 255 255 
255 255 255 
255 255 255 
0 0 157 
204 204 204 
204 204 204 
204 204 204 
163 163 163 
255 0 0 
255 0 0 
255 255 255 
255 255 255 
255 255 255 
255 255 255 
255 255 255 
255 255 255 
255 255 255 
255 255 255 
255 255 255 
255 255 255 
255 255 255 
255 255 255 
255 255 255 
255 255 255 
255 255 255 
255 255 255 
255 255 255 
255 255 255 
255 255 255 
255 255 255 
255 255 255 
255 255 255 
255 255 255 
255 255 255 
255 255 255 
255 255 255 
255 255 255 
255 255 255 
255 255 255 
255 255 255 
255 255 255 
255 255 255 
255 255 255 
204 204 204 
204 204 204 
204 204 204 
255 255 255 
204 204 204 
255 0 0 
218 0 0 
255 255 255 
255 255 255 
255 255 255 
255 255 255 
255 255 255 
255 255 255 
255 255 255 
255 255 255 
255 255 255 
255 255 255 
255 255 255 
255 255 255 
255 255 255 
255 255 255 
255 255 255 
255 255 255 
255 255 255 
255 255 255 
255 255 255 
255 255 255 
255 255 255 
255 255 255 
255 255 255 
255 255 255 
255 255 255 
255 255 255 
255 255 255 
255 255 255 
255 255 255 
255 255 255 
255 255 255 
255 255 255 
255 255 255 
204 204 204 
204 204 204 
204 204 204 
204 204 204 
204 204 204 
31 0 0 
255 255 255 
255 255 255 
255 255 255 
255 255 255 
255 255 255 
255 255 255 
255 255 255 
255 255 255 
255 255 255 
255 255 255 
255 255 255 
255 255 255 
255 255 255 
255 255 255 
255 255 255 
255 255 255 
255 255 255 
255 255 255 
255 255 255 
255 255 255 
255 255 255 
255 255 255 
255 255 255 
255 255 255 
255 255 255 
255 255 255 
255 255 255 
255 255 255 
255 255 255 
255 255 255 
255 255 255 
255 255 255 
255 255 255 
255 255 255 
255 255 255 
204 204 204 
204 204 204 
204 204 204 
204 204 204 
255 255 255 
255 255 255 
255 255 255 
255 255 255 
255 255 255 
255 255 255 
255 255 255 
255 255 255 
255 255 255 
255 255 255 
255 255 255 
255 255 255 
255 255 255 
255 255 255 
255 255 255 
255 255 255 
255 255 255 
255 255 255 
255 255 255 
255 255 255 
255 255 255 
255 255 255 
255 255 255 
255 255 255 
255 255 255 
255 255 255 
255 255 255 
255 255 255 
255 255 255 
255 255 255 
255 255 255 
255 255 255 
255 255 255 
255 255 255 
255 255 255 
255 255 255 
255 255 255 
255 255 255 
255 255 255 
255 255 255 
255 255 255 
255 255 255 
255 255 255 
255 255 255 
255 255 255 
255 255 255 
255 255 255 
255 255 255 
255 255 255 
255 255 255 
255 255 255 
255 255 255 
255 255 255 
255 255 255 
255 255 255 
255 255 255 
255 255 255 
255 255 255 
255 255 255 
255 255 255 
255 255 255 
255 255 255 
255 255 255 
255 255 255 
255 255 255 
255 255 255 
255 255 255 
255 255 255 
255 255 255 
255 255 255 
255 255 255 
255 255 255 
255 255 255 
255 255 255 
255 255 255 
255 255 255 
255 255 255 
255 255 255 
255 255 255 
255 255 255 
255 255 255 
255 255 255 
255 255 255 
255 255 255 
255 255 255 
255 255 255 
255 255 255 
255 255 255 
255 255 255 
255 255 255 
255 255 255 
255 255 255 
255 255 255 
255 255 255 
255 255 255 
255 255 255 
255 255 255 
255 255 255 
255 255 255 
255 255 255 
255 255 255 
255 255 255 
255 255 255 
255 255 255 
255 255 255 
255 255 255 
255 255 255 
255 255 255 
255 255 255 
255 255 255 
255 255 255 
255 255 255 
255 255 255 
255 255 255 
255 255 255 
255 255 255 
255 255 255 
255 255 255 
255 255 255 
255 255 255 
255 255 255 
255 255 255 
255 255 255 
255 255 255 
255 255 255 
255 255 255 
255 255 255 
255 255 255 
255 255 255 
255 255 255 
255 255 255 
255 255 255 
255 255 255 
255 255 255 
255 255 255 
255 255 255 
255 255 255 
255 255 255 
255 255 255 
255 255 255 
255 255 255 
255 255 255 
255 255 255 
255 255 255 
255 255 255 
255 255 255 
255 255 255 
255 255 255 
255 255 255 
255 255 255 
255 255 255 
255 255 255 
255 255 255 
255 255 255 
255 255 255 
255 255 255 
255 255 255 
255 255 255 
255 255 255 
255 255 255 
255 255 255 
255 255 255 
255 255 255 
255 255 255 
255 255 255 
255 255 255 
255 255 255 
255 255 255 
255 255 255 
255 255 255 
255 255 255 
255 255 255 
255 255 255 
255 255 255 
255 255 255 
255 255 255 
255 255 255 
255 255 255 
255 255 255 
255 255 255 
255 255 255 
255 255 255 
255 255 255 
255 255 255 
255 255 255 
255 255 255 
255 255 255 
255 255 255 
255 255 255 
255 255 255 
255 255 255 
255 255 255 
255 255 255 
255 255 255 
255 255 255 
255 255 255 
255 255 255 
255 255 255 
255 255 255 
255 255 255 
255 255 255 
255 255 255 
255 255 255 
255 255 255 
255 255 255 
255 255 255 
255 255 255 
255 255 255 
255 255 255 
255 255 255 
255 255 255 
255 255 255 
255 255 255 
255 255 255 
255 255 255 
255 255 255 
255 255 255 
255 255 255 
255 255 255 
255 255 255 
255 255 255 
255 255 255 
255 255 255 
255 255 255 
255 255 255 
255 255 255 
255 255 255 
255 255 255 
255 255 255 
255 255 255 
255 255 255 
255 255 255 
255 255 255 
255 255 255 
255 255 255 
255 255 255 
255 255 255 
255 255 255 
255 255 255 
255 255 255 
255 255 255 
255 255 255 
255 255 255 
255 255 255 
255 255 255 
255 255 255 
255 255 255 
255 255 255 
255 255 255 
255 255 255 
255 255 255 
255 255 255 
255 255 255 
255 255 255 
255 255 255 
255 255 255 
255 255 255 
255 255 255 
255 255 255 
255 255 255 
255 255 255 
255 255 255 
255 255 255 
255 255 255 
255 255 255 
255 255 255 
255 255 255 
255 255 255 
255 255 255 
255 255 255 
255 255 255 
255 255 255 
255 255 255 
255 255 255 
255 255 255 
255 255 255 
255 255 255 
255 255 255 
255 255 255 
255 255 255 
255 255 255 
255 255 255 
255 255 255 
255 255 255 
255 255 255 
255 255 255 
255 255 255 
255 255 255 
255 255 255 
255 255 255 
255 255 255 
255 255 255 
255 255 255 
255 255 255 
255 255 255 
255 255 255 
255 255 255 
255 255 255 
255 255 255 
255 255 255 
255 255 255 
255 255 255 
255 255 255 
255 255 255 
255 255 255 
255 255 255 
255 255 255 
255 255 255 
255 255 255 
255 255 255 
255 255 255 
255 255 255 
255 255 255 
255 255 255 
255 255 255 
255 255 255 
255 255 255 
255 255 255 
255 255 255 
255 255 255 
255 255 255 
255 255 255 
255 255 255 
255 255 255 
255 255 255 
255 255 255 
255 255 255 
255 255 255 
255 255 255 
255 255 255 
255 255 255 
255 255 255 
255 255 255 
255 255 255 
255 255 255 
255 255 255 
255 255 255 
255 255 255 
255 255 255 
255 255 255 
255 255 255 
255 255 255 
255 255 255 
255 255 255 
255 255 255 
255 255 255 
255 255 255 
255 255 255 
255 255 255 
255 255 255 
255 255 255 
255 255 255 
255 255 255 
255 255 255 
255 255 255 
255 255 255 
255 255 255 
255 255 255 
255 255 255 
255 255 255 
255 255 255 
255 255 255 
255 255 255 
255 255 255 
255 255 255 
255 255 255 
255 255 255 
255 255 255 
255 255 255 
255 255 255 
255 255 255 
255 255 255 
255 255 255 
255 255 255 
255 255 255 
255 255 255 
255 255 255 
255 255 255 
255 255 255 
255 255 255 
255 255 255 
255 255 255 
255 255 255 
255 255 255 
255 255 255 
255 255 255 
255 255 255 
255 255 255 
255 255 255 
255 255 255 
255 255 255 
255 255 255 
255 255 255 
255 255 255 
255 255 255 
255 255 255 
255 255 255 
255 255 255 
255 255 255 
255 255 255 
255 255 255 
255 255 255 
255 255 255 
255 255 255 
255 255 255 
255 255 255 
255 255 255 
255 255 255 
255 255 255 
255 255 255 
255 255 255 
255 255 255 
255 255 255 
255 255 255 
255 255 255 
255 255 255 
255 255 255 
255 255 255 
255 255 255 
255 255 255 
255 255 255 
255 255 255 
255 255 255 
255 255 255 
255 255 255 
255 255 255 
255 255 255 
255 255 255 
255 255 255 
255 255 255 
255 255 255 
255 255 255 
255 255 255 
255 255 255 
255 255 255 
255 255 255 
255 255 255 
255 255 255 
255 255 255 
255 255 255 
255 255 255 
255 255 255 
255 255 255 
255 255 255 
255 255 255 
255 255 255 
255 255 255 
255 255 255 
255 255 255 
255 255 255 
255 255 255 
255 255 255 
255 255 255 
255 255 255 
255 255 255 
255 255 255 
255 255 255 
255 255 255 
255 255 255 
